<?xml version="1.0" encoding="UTF-8" standalone="no"?>
<!DOCTYPE svg PUBLIC "-//W3C//DTD SVG 1.1//EN" "http://www.w3.org/Graphics/SVG/1.1/DTD/svg11.dtd">
<svg xmlns="http://www.w3.org/2000/svg" version="1.1" viewBox="0.00 0.00 500.00 500.00">
<g stroke-width="2.00" fill="none" stroke-linecap="butt">
<path stroke="#3a4d81" vector-effect="non-scaling-stroke" d="
  M 144.81 212.28
  C 142.35 222.63 139.08 233.41 139.96 244.02
  C 141.47 262.31 163.93 271.67 179.23 263.22
  Q 183.99 260.58 186.77 256.76
  Q 203.27 234.09 219.55 211.27
  Q 221.98 207.86 224.62 204.61
  C 228.49 199.85 230.94 202.83 234.02 206.00"
/>
<path stroke="#464082" vector-effect="non-scaling-stroke" d="
  M 234.02 206.00
  Q 240.22 215.56 251.10 217.82
  C 262.38 220.16 271.71 215.41 278.31 206.31
  Q 290.68 189.30 302.88 172.07
  A 0.44 0.44 0.0 0 0 302.78 171.47
  L 286.90 160.13
  A 0.72 0.71 -54.3 0 0 285.90 160.30
  Q 273.72 177.52 261.20 194.44
  C 259.72 196.44 256.47 199.40 253.81 197.18
  Q 252.30 195.91 250.31 193.51"
/>
<path stroke="#3a4d81" vector-effect="non-scaling-stroke" d="
  M 250.31 193.51
  C 240.51 180.46 223.97 177.22 211.43 188.28
  Q 208.90 190.50 204.46 196.61
  Q 187.93 219.30 171.64 242.15
  C 169.61 245.00 167.38 246.52 164.27 245.19
  C 159.49 243.17 159.87 239.47 160.98 234.83
  Q 165.59 215.65 170.11 196.30"
/>
<path stroke="#1e6a7d" vector-effect="non-scaling-stroke" d="
  M 170.11 196.30
  Q 174.62 177.04 179.22 157.71
  C 182.50 143.93 186.12 137.59 201.00 137.45
  Q 219.28 137.27 237.52 137.24"
/>
<path stroke="#32557f" vector-effect="non-scaling-stroke" d="
  M 237.52 137.24
  Q 268.03 137.27 298.50 137.32
  C 306.50 137.33 313.02 139.46 317.19 146.94"
/>
<path stroke="#464082" vector-effect="non-scaling-stroke" d="
  M 317.19 146.94
  Q 318.96 150.61 319.47 152.75
  Q 323.43 169.22 327.30 185.85"
/>
<path stroke="#691d87" vector-effect="non-scaling-stroke" d="
  M 327.30 185.85
  Q 333.12 210.59 338.87 235.48
  C 339.47 238.07 340.11 240.23 338.61 242.50
  C 335.96 246.51 331.49 246.16 328.67 242.32
  Q 316.48 225.74 304.53 209.16
  A 0.36 0.36 0.0 0 0 303.95 209.16
  Q 298.23 216.76 292.77 224.52
  Q 291.47 226.38 293.16 228.86
  Q 303.85 244.58 313.21 256.49
  Q 317.94 262.50 325.12 265.04
  C 328.69 266.30 335.72 266.67 338.95 265.92
  C 355.15 262.13 363.27 247.65 359.47 231.50
  Q 352.28 201.00 345.12 170.56"
/>
<path stroke="#464082" vector-effect="non-scaling-stroke" d="
  M 345.12 170.56
  C 342.08 157.28 340.21 142.93 332.30 131.62"
/>
<path stroke="#32557f" vector-effect="non-scaling-stroke" d="
  M 332.30 131.62
  Q 321.70 117.70 304.75 116.48
  Q 289.48 115.38 255.29 116.12"
/>
<path stroke="#1e6a7d" vector-effect="non-scaling-stroke" d="
  M 255.29 116.12
  Q 227.71 115.60 200.12 116.43
  C 184.74 116.90 172.57 121.30 164.75 135.11
  Q 162.05 139.88 159.45 150.36
  Q 151.79 181.24 144.81 212.28"
/>
<path stroke="#4eb3da" vector-effect="non-scaling-stroke" d="
  M 255.29 116.12
  Q 255.06 116.32 255.23 116.69
  Q 255.32 116.88 255.12 116.87
  Q 254.92 116.86 254.71 116.87
  Q 254.43 116.90 254.50 117.17
  C 255.18 120.06 252.76 122.88 250.55 124.39
  A 1.01 1.00 -17.2 0 0 250.11 125.22
  L 250.11 125.86
  Q 250.11 126.29 249.76 126.53
  L 239.03 134.04
  Q 238.61 134.33 238.62 134.84
  Q 238.62 135.20 238.33 135.40
  A 0.27 0.26 -58.0 0 0 238.44 135.88
  Q 238.61 135.91 238.76 136.03
  A 0.29 0.28 57.8 0 1 238.65 136.53
  Q 237.72 136.74 237.52 137.24"
/>
<path stroke="#56aadb" vector-effect="non-scaling-stroke" d="
  M 170.11 196.30
  Q 166.26 196.39 164.67 198.91
  Q 163.21 201.22 162.75 201.67
  Q 159.25 205.14 155.76 208.62
  Q 155.45 208.93 155.00 209.03
  Q 154.55 209.13 154.26 209.49
  Q 152.58 211.60 149.91 212.12
  Q 149.49 212.20 149.08 212.12
  Q 148.07 211.93 147.12 212.38
  Q 146.73 212.56 146.49 212.21
  Q 146.40 212.08 146.23 212.12
  Q 146.11 212.15 146.11 212.27
  Q 146.11 212.41 146.12 212.56
  Q 146.12 212.83 145.88 212.72
  L 144.81 212.28"
/>
<path stroke="#7789df" vector-effect="non-scaling-stroke" d="
  M 332.30 131.62
  Q 324.27 138.75 317.19 146.94"
/>
<path stroke="#7f81e1" vector-effect="non-scaling-stroke" d="
  M 234.02 206.00
  L 250.31 193.51"
/>
<path stroke="#ae51e7" vector-effect="non-scaling-stroke" d="
  M 345.12 170.56
  Q 343.77 171.00 344.22 171.81
  A 0.20 0.19 53.7 0 1 344.19 172.04
  Q 343.99 172.22 343.79 171.97
  Q 343.66 171.82 343.63 171.64
  Q 343.57 171.34 343.32 171.51
  C 342.34 172.18 341.40 172.61 340.58 173.54
  C 339.33 174.94 337.80 175.64 336.74 177.20
  C 335.61 178.88 333.93 179.38 332.66 180.67
  Q 331.52 181.83 330.55 182.51
  Q 328.60 183.87 327.30 185.85"
/>
<path stroke="#808691" vector-effect="non-scaling-stroke" d="
  M 190.21 317.53
  A 0.35 0.35 0.0 0 1 190.56 317.18
  L 221.63 317.18
  A 0.35 0.35 0.0 0 0 221.98 316.83
  L 222.01 309.58
  A 0.35 0.35 0.0 0 0 221.66 309.23
  L 190.60 309.23
  A 0.35 0.35 0.0 0 0 190.25 309.58
  L 190.19 316.88
  A 0.35 0.35 0.0 0 1 189.84 317.23
  L 182.60 317.20
  A 0.35 0.35 0.0 0 0 182.25 317.55
  L 182.25 340.65
  A 0.35 0.35 0.0 0 0 182.60 341.00
  L 189.85 341.02
  A 0.35 0.35 0.0 0 0 190.20 340.67
  L 190.21 317.53"
/>
<path stroke="#808691" vector-effect="non-scaling-stroke" d="
  M 261.80 324.77
  A 0.38 0.38 0.0 0 1 261.42 325.15
  L 238.30 325.17
  A 0.38 0.38 0.0 0 1 237.92 324.79
  L 237.96 309.63
  A 0.38 0.38 0.0 0 0 237.58 309.25
  L 230.38 309.23
  A 0.38 0.38 0.0 0 0 230.00 309.61
  L 230.00 348.62
  A 0.38 0.38 0.0 0 0 230.38 349.00
  L 237.57 348.99
  A 0.38 0.38 0.0 0 0 237.95 348.61
  L 237.94 333.40
  A 0.38 0.38 0.0 0 1 238.32 333.02
  L 261.43 333.04
  A 0.38 0.38 0.0 0 1 261.81 333.42
  L 261.79 348.62
  A 0.38 0.38 0.0 0 0 262.17 349.00
  L 269.37 349.00
  A 0.38 0.38 0.0 0 0 269.75 348.62
  L 269.76 309.62
  A 0.38 0.38 0.0 0 0 269.38 309.24
  L 262.17 309.25
  A 0.38 0.38 0.0 0 0 261.79 309.63
  L 261.80 324.77"
/>
<path stroke="#808691" vector-effect="non-scaling-stroke" d="
  M 285.98 316.81
  A 0.42 0.42 0.0 0 1 285.56 317.23
  L 278.42 317.16
  A 0.42 0.42 0.0 0 0 278.00 317.58
  L 278.00 348.59
  A 0.42 0.42 0.0 0 0 278.42 349.01
  L 285.55 348.99
  A 0.42 0.42 0.0 0 0 285.97 348.57
  L 285.95 341.43
  A 0.42 0.42 0.0 0 1 286.37 341.01
  L 309.39 341.01
  A 0.42 0.42 0.0 0 1 309.81 341.43
  L 309.78 348.58
  A 0.42 0.42 0.0 0 0 310.20 349.00
  L 317.33 349.00
  A 0.42 0.42 0.0 0 0 317.75 348.58
  L 317.76 317.61
  A 0.42 0.42 0.0 0 0 317.34 317.19
  L 310.21 317.23
  A 0.42 0.42 0.0 0 1 309.79 316.81
  L 309.77 309.66
  A 0.42 0.42 0.0 0 0 309.35 309.24
  L 286.41 309.23
  A 0.42 0.42 0.0 0 0 285.99 309.65
  L 285.98 316.81"
/>
<path stroke="#808691" vector-effect="non-scaling-stroke" d="
  M 221.49 349.00
  A 0.52 0.52 0.0 0 0 222.01 348.48
  L 222.00 341.54
  A 0.52 0.52 0.0 0 0 221.48 341.02
  L 190.75 341.02
  A 0.52 0.52 0.0 0 0 190.23 341.54
  L 190.20 348.48
  A 0.52 0.52 0.0 0 0 190.72 349.00
  L 221.49 349.00"
/>
<path stroke="#1e6a7d" vector-effect="non-scaling-stroke" d="
  M 248.59 366.53
  A 0.41 0.41 0.0 0 1 249.00 366.94
  L 248.87 378.62
  A 0.41 0.41 0.0 0 0 249.28 379.03
  L 250.69 379.04
  A 0.41 0.41 0.0 0 0 251.11 378.62
  L 251.01 366.97
  A 0.41 0.41 0.0 0 1 251.43 366.56
  L 255.68 366.64
  A 0.41 0.41 0.0 0 0 256.10 366.23
  L 256.08 364.86
  A 0.41 0.41 0.0 0 0 255.67 364.46
  L 244.31 364.69
  A 0.41 0.41 0.0 0 0 243.92 365.17
  L 244.08 366.19
  A 0.41 0.41 0.0 0 0 244.49 366.53
  L 248.59 366.53"
/>
<path stroke="#808691" vector-effect="non-scaling-stroke" d="
  M 309.80 317.46
  A 0.28 0.28 0.0 0 0 309.52 317.18
  L 286.24 317.18
  A 0.28 0.28 0.0 0 0 285.96 317.46
  L 285.96 332.78
  A 0.28 0.28 0.0 0 0 286.24 333.06
  L 309.52 333.06
  A 0.28 0.28 0.0 0 0 309.80 332.78
  L 309.80 317.46"
/>
</g>
<path fill="#010c22" d="
  M 0.00 0.00
  L 500.00 0.00
  L 500.00 500.00
  L 0.00 500.00
  L 0.00 0.00
  Z
  M 144.81 212.28
  C 142.35 222.63 139.08 233.41 139.96 244.02
  C 141.47 262.31 163.93 271.67 179.23 263.22
  Q 183.99 260.58 186.77 256.76
  Q 203.27 234.09 219.55 211.27
  Q 221.98 207.86 224.62 204.61
  C 228.49 199.85 230.94 202.83 234.02 206.00
  Q 240.22 215.56 251.10 217.82
  C 262.38 220.16 271.71 215.41 278.31 206.31
  Q 290.68 189.30 302.88 172.07
  A 0.44 0.44 0.0 0 0 302.78 171.47
  L 286.90 160.13
  A 0.72 0.71 -54.3 0 0 285.90 160.30
  Q 273.72 177.52 261.20 194.44
  C 259.72 196.44 256.47 199.40 253.81 197.18
  Q 252.30 195.91 250.31 193.51
  C 240.51 180.46 223.97 177.22 211.43 188.28
  Q 208.90 190.50 204.46 196.61
  Q 187.93 219.30 171.64 242.15
  C 169.61 245.00 167.38 246.52 164.27 245.19
  C 159.49 243.17 159.87 239.47 160.98 234.83
  Q 165.59 215.65 170.11 196.30
  Q 174.62 177.04 179.22 157.71
  C 182.50 143.93 186.12 137.59 201.00 137.45
  Q 219.28 137.27 237.52 137.24
  Q 268.03 137.27 298.50 137.32
  C 306.50 137.33 313.02 139.46 317.19 146.94
  Q 318.96 150.61 319.47 152.75
  Q 323.43 169.22 327.30 185.85
  Q 333.12 210.59 338.87 235.48
  C 339.47 238.07 340.11 240.23 338.61 242.50
  C 335.96 246.51 331.49 246.16 328.67 242.32
  Q 316.48 225.74 304.53 209.16
  A 0.36 0.36 0.0 0 0 303.95 209.16
  Q 298.23 216.76 292.77 224.52
  Q 291.47 226.38 293.16 228.86
  Q 303.85 244.58 313.21 256.49
  Q 317.94 262.50 325.12 265.04
  C 328.69 266.30 335.72 266.67 338.95 265.92
  C 355.15 262.13 363.27 247.65 359.47 231.50
  Q 352.28 201.00 345.12 170.56
  C 342.08 157.28 340.21 142.93 332.30 131.62
  Q 321.70 117.70 304.75 116.48
  Q 289.48 115.38 255.29 116.12
  Q 227.71 115.60 200.12 116.43
  C 184.74 116.90 172.57 121.30 164.75 135.11
  Q 162.05 139.88 159.45 150.36
  Q 151.79 181.24 144.81 212.28
  Z
  M 190.21 317.53
  A 0.35 0.35 0.0 0 1 190.56 317.18
  L 221.63 317.18
  A 0.35 0.35 0.0 0 0 221.98 316.83
  L 222.01 309.58
  A 0.35 0.35 0.0 0 0 221.66 309.23
  L 190.60 309.23
  A 0.35 0.35 0.0 0 0 190.25 309.58
  L 190.19 316.88
  A 0.35 0.35 0.0 0 1 189.84 317.23
  L 182.60 317.20
  A 0.35 0.35 0.0 0 0 182.25 317.55
  L 182.25 340.65
  A 0.35 0.35 0.0 0 0 182.60 341.00
  L 189.85 341.02
  A 0.35 0.35 0.0 0 0 190.20 340.67
  L 190.21 317.53
  Z
  M 261.80 324.77
  A 0.38 0.38 0.0 0 1 261.42 325.15
  L 238.30 325.17
  A 0.38 0.38 0.0 0 1 237.92 324.79
  L 237.96 309.63
  A 0.38 0.38 0.0 0 0 237.58 309.25
  L 230.38 309.23
  A 0.38 0.38 0.0 0 0 230.00 309.61
  L 230.00 348.62
  A 0.38 0.38 0.0 0 0 230.38 349.00
  L 237.57 348.99
  A 0.38 0.38 0.0 0 0 237.95 348.61
  L 237.94 333.40
  A 0.38 0.38 0.0 0 1 238.32 333.02
  L 261.43 333.04
  A 0.38 0.38 0.0 0 1 261.81 333.42
  L 261.79 348.62
  A 0.38 0.38 0.0 0 0 262.17 349.00
  L 269.37 349.00
  A 0.38 0.38 0.0 0 0 269.75 348.62
  L 269.76 309.62
  A 0.38 0.38 0.0 0 0 269.38 309.24
  L 262.17 309.25
  A 0.38 0.38 0.0 0 0 261.79 309.63
  L 261.80 324.77
  Z
  M 285.98 316.81
  A 0.42 0.42 0.0 0 1 285.56 317.23
  L 278.42 317.16
  A 0.42 0.42 0.0 0 0 278.00 317.58
  L 278.00 348.59
  A 0.42 0.42 0.0 0 0 278.42 349.01
  L 285.55 348.99
  A 0.42 0.42 0.0 0 0 285.97 348.57
  L 285.95 341.43
  A 0.42 0.42 0.0 0 1 286.37 341.01
  L 309.39 341.01
  A 0.42 0.42 0.0 0 1 309.81 341.43
  L 309.78 348.58
  A 0.42 0.42 0.0 0 0 310.20 349.00
  L 317.33 349.00
  A 0.42 0.42 0.0 0 0 317.75 348.58
  L 317.76 317.61
  A 0.42 0.42 0.0 0 0 317.34 317.19
  L 310.21 317.23
  A 0.42 0.42 0.0 0 1 309.79 316.81
  L 309.77 309.66
  A 0.42 0.42 0.0 0 0 309.35 309.24
  L 286.41 309.23
  A 0.42 0.42 0.0 0 0 285.99 309.65
  L 285.98 316.81
  Z
  M 221.49 349.00
  A 0.52 0.52 0.0 0 0 222.01 348.48
  L 222.00 341.54
  A 0.52 0.52 0.0 0 0 221.48 341.02
  L 190.75 341.02
  A 0.52 0.52 0.0 0 0 190.23 341.54
  L 190.20 348.48
  A 0.52 0.52 0.0 0 0 190.72 349.00
  L 221.49 349.00
  Z
  M 248.59 366.53
  A 0.41 0.41 0.0 0 1 249.00 366.94
  L 248.87 378.62
  A 0.41 0.41 0.0 0 0 249.28 379.03
  L 250.69 379.04
  A 0.41 0.41 0.0 0 0 251.11 378.62
  L 251.01 366.97
  A 0.41 0.41 0.0 0 1 251.43 366.56
  L 255.68 366.64
  A 0.41 0.41 0.0 0 0 256.10 366.23
  L 256.08 364.86
  A 0.41 0.41 0.0 0 0 255.67 364.46
  L 244.31 364.69
  A 0.41 0.41 0.0 0 0 243.92 365.17
  L 244.08 366.19
  A 0.41 0.41 0.0 0 0 244.49 366.53
  L 248.59 366.53
  Z"
/>
<path fill="#3ac7d7" d="
  M 255.29 116.12
  Q 255.06 116.32 255.23 116.69
  Q 255.32 116.88 255.12 116.87
  Q 254.92 116.86 254.71 116.87
  Q 254.43 116.90 254.50 117.17
  C 255.18 120.06 252.76 122.88 250.55 124.39
  A 1.01 1.00 -17.2 0 0 250.11 125.22
  L 250.11 125.86
  Q 250.11 126.29 249.76 126.53
  L 239.03 134.04
  Q 238.61 134.33 238.62 134.84
  Q 238.62 135.20 238.33 135.40
  A 0.27 0.26 -58.0 0 0 238.44 135.88
  Q 238.61 135.91 238.76 136.03
  A 0.29 0.28 57.8 0 1 238.65 136.53
  Q 237.72 136.74 237.52 137.24
  Q 219.28 137.27 201.00 137.45
  C 186.12 137.59 182.50 143.93 179.22 157.71
  Q 174.62 177.04 170.11 196.30
  Q 166.26 196.39 164.67 198.91
  Q 163.21 201.22 162.75 201.67
  Q 159.25 205.14 155.76 208.62
  Q 155.45 208.93 155.00 209.03
  Q 154.55 209.13 154.26 209.49
  Q 152.58 211.60 149.91 212.12
  Q 149.49 212.20 149.08 212.12
  Q 148.07 211.93 147.12 212.38
  Q 146.73 212.56 146.49 212.21
  Q 146.40 212.08 146.23 212.12
  Q 146.11 212.15 146.11 212.27
  Q 146.11 212.41 146.12 212.56
  Q 146.12 212.83 145.88 212.72
  L 144.81 212.28
  Q 151.79 181.24 159.45 150.36
  Q 162.05 139.88 164.75 135.11
  C 172.57 121.30 184.74 116.90 200.12 116.43
  Q 227.71 115.60 255.29 116.12
  Z"
/>
<path fill="#629edc" d="
  M 255.29 116.12
  Q 289.48 115.38 304.75 116.48
  Q 321.70 117.70 332.30 131.62
  Q 324.27 138.75 317.19 146.94
  C 313.02 139.46 306.50 137.33 298.50 137.32
  Q 268.03 137.27 237.52 137.24
  Q 237.72 136.74 238.65 136.53
  A 0.29 0.28 57.8 0 0 238.76 136.03
  Q 238.61 135.91 238.44 135.88
  A 0.27 0.26 -58.0 0 1 238.33 135.40
  Q 238.62 135.20 238.62 134.84
  Q 238.61 134.33 239.03 134.04
  L 249.76 126.53
  Q 250.11 126.29 250.11 125.86
  L 250.11 125.22
  A 1.01 1.00 -17.2 0 1 250.55 124.39
  C 252.76 122.88 255.18 120.06 254.50 117.17
  Q 254.43 116.90 254.71 116.87
  Q 254.92 116.86 255.12 116.87
  Q 255.32 116.88 255.23 116.69
  Q 255.06 116.32 255.29 116.12
  Z"
/>
<path fill="#8b74e2" d="
  M 332.30 131.62
  C 340.21 142.93 342.08 157.28 345.12 170.56
  Q 343.77 171.00 344.22 171.81
  A 0.20 0.19 53.7 0 1 344.19 172.04
  Q 343.99 172.22 343.79 171.97
  Q 343.66 171.82 343.63 171.64
  Q 343.57 171.34 343.32 171.51
  C 342.34 172.18 341.40 172.61 340.58 173.54
  C 339.33 174.94 337.80 175.64 336.74 177.20
  C 335.61 178.88 333.93 179.38 332.66 180.67
  Q 331.52 181.83 330.55 182.51
  Q 328.60 183.87 327.30 185.85
  Q 323.43 169.22 319.47 152.75
  Q 318.96 150.61 317.19 146.94
  Q 324.27 138.75 332.30 131.62
  Z"
/>
<path fill="#8b74e2" d="
  M 234.02 206.00
  L 250.31 193.51
  Q 252.30 195.91 253.81 197.18
  C 256.47 199.40 259.72 196.44 261.20 194.44
  Q 273.72 177.52 285.90 160.30
  A 0.72 0.71 -54.3 0 1 286.90 160.13
  L 302.78 171.47
  A 0.44 0.44 0.0 0 1 302.88 172.07
  Q 290.68 189.30 278.31 206.31
  C 271.71 215.41 262.38 220.16 251.10 217.82
  Q 240.22 215.56 234.02 206.00
  Z"
/>
<path fill="#d12eeb" d="
  M 345.12 170.56
  Q 352.28 201.00 359.47 231.50
  C 363.27 247.65 355.15 262.13 338.95 265.92
  C 335.72 266.67 328.69 266.30 325.12 265.04
  Q 317.94 262.50 313.21 256.49
  Q 303.85 244.58 293.16 228.86
  Q 291.47 226.38 292.77 224.52
  Q 298.23 216.76 303.95 209.16
  A 0.36 0.36 0.0 0 1 304.53 209.16
  Q 316.48 225.74 328.67 242.32
  C 331.49 246.16 335.96 246.51 338.61 242.50
  C 340.11 240.23 339.47 238.07 338.87 235.48
  Q 333.12 210.59 327.30 185.85
  Q 328.60 183.87 330.55 182.51
  Q 331.52 181.83 332.66 180.67
  C 333.93 179.38 335.61 178.88 336.74 177.20
  C 337.80 175.64 339.33 174.94 340.58 173.54
  C 341.40 172.61 342.34 172.18 343.32 171.51
  Q 343.57 171.34 343.63 171.64
  Q 343.66 171.82 343.79 171.97
  Q 343.99 172.22 344.19 172.04
  A 0.20 0.19 53.7 0 0 344.22 171.81
  Q 343.77 171.00 345.12 170.56
  Z"
/>
<path fill="#728ddf" d="
  M 250.31 193.51
  L 234.02 206.00
  C 230.94 202.83 228.49 199.85 224.62 204.61
  Q 221.98 207.86 219.55 211.27
  Q 203.27 234.09 186.77 256.76
  Q 183.99 260.58 179.23 263.22
  C 163.93 271.67 141.47 262.31 139.96 244.02
  C 139.08 233.41 142.35 222.63 144.81 212.28
  L 145.88 212.72
  Q 146.12 212.83 146.12 212.56
  Q 146.11 212.41 146.11 212.27
  Q 146.11 212.15 146.23 212.12
  Q 146.40 212.08 146.49 212.21
  Q 146.73 212.56 147.12 212.38
  Q 148.07 211.93 149.08 212.12
  Q 149.49 212.20 149.91 212.12
  Q 152.58 211.60 154.26 209.49
  Q 154.55 209.13 155.00 209.03
  Q 155.45 208.93 155.76 208.62
  Q 159.25 205.14 162.75 201.67
  Q 163.21 201.22 164.67 198.91
  Q 166.26 196.39 170.11 196.30
  Q 165.59 215.65 160.98 234.83
  C 159.87 239.47 159.49 243.17 164.27 245.19
  C 167.38 246.52 169.61 245.00 171.64 242.15
  Q 187.93 219.30 204.46 196.61
  Q 208.90 190.50 211.43 188.28
  C 223.97 177.22 240.51 180.46 250.31 193.51
  Z"
/>
<path fill="#ffffff" d="
  M 190.21 317.53
  L 190.20 340.67
  A 0.35 0.35 0.0 0 1 189.85 341.02
  L 182.60 341.00
  A 0.35 0.35 0.0 0 1 182.25 340.65
  L 182.25 317.55
  A 0.35 0.35 0.0 0 1 182.60 317.20
  L 189.84 317.23
  A 0.35 0.35 0.0 0 0 190.19 316.88
  L 190.25 309.58
  A 0.35 0.35 0.0 0 1 190.60 309.23
  L 221.66 309.23
  A 0.35 0.35 0.0 0 1 222.01 309.58
  L 221.98 316.83
  A 0.35 0.35 0.0 0 1 221.63 317.18
  L 190.56 317.18
  A 0.35 0.35 0.0 0 0 190.21 317.53
  Z"
/>
<path fill="#ffffff" d="
  M 261.80 324.77
  L 261.79 309.63
  A 0.38 0.38 0.0 0 1 262.17 309.25
  L 269.38 309.24
  A 0.38 0.38 0.0 0 1 269.76 309.62
  L 269.75 348.62
  A 0.38 0.38 0.0 0 1 269.37 349.00
  L 262.17 349.00
  A 0.38 0.38 0.0 0 1 261.79 348.62
  L 261.81 333.42
  A 0.38 0.38 0.0 0 0 261.43 333.04
  L 238.32 333.02
  A 0.38 0.38 0.0 0 0 237.94 333.40
  L 237.95 348.61
  A 0.38 0.38 0.0 0 1 237.57 348.99
  L 230.38 349.00
  A 0.38 0.38 0.0 0 1 230.00 348.62
  L 230.00 309.61
  A 0.38 0.38 0.0 0 1 230.38 309.23
  L 237.58 309.25
  A 0.38 0.38 0.0 0 1 237.96 309.63
  L 237.92 324.79
  A 0.38 0.38 0.0 0 0 238.30 325.17
  L 261.42 325.15
  A 0.38 0.38 0.0 0 0 261.80 324.77
  Z"
/>
<path fill="#ffffff" d="
  M 285.98 316.81
  L 285.99 309.65
  A 0.42 0.42 0.0 0 1 286.41 309.23
  L 309.35 309.24
  A 0.42 0.42 0.0 0 1 309.77 309.66
  L 309.79 316.81
  A 0.42 0.42 0.0 0 0 310.21 317.23
  L 317.34 317.19
  A 0.42 0.42 0.0 0 1 317.76 317.61
  L 317.75 348.58
  A 0.42 0.42 0.0 0 1 317.33 349.00
  L 310.20 349.00
  A 0.42 0.42 0.0 0 1 309.78 348.58
  L 309.81 341.43
  A 0.42 0.42 0.0 0 0 309.39 341.01
  L 286.37 341.01
  A 0.42 0.42 0.0 0 0 285.95 341.43
  L 285.97 348.57
  A 0.42 0.42 0.0 0 1 285.55 348.99
  L 278.42 349.01
  A 0.42 0.42 0.0 0 1 278.00 348.59
  L 278.00 317.58
  A 0.42 0.42 0.0 0 1 278.42 317.16
  L 285.56 317.23
  A 0.42 0.42 0.0 0 0 285.98 316.81
  Z
  M 309.80 317.46
  A 0.28 0.28 0.0 0 0 309.52 317.18
  L 286.24 317.18
  A 0.28 0.28 0.0 0 0 285.96 317.46
  L 285.96 332.78
  A 0.28 0.28 0.0 0 0 286.24 333.06
  L 309.52 333.06
  A 0.28 0.28 0.0 0 0 309.80 332.78
  L 309.80 317.46
  Z"
/>
<rect fill="#010c22" x="285.96" y="317.18" width="23.84" height="15.88" rx="0.28"/>
<path fill="#ffffff" d="
  M 221.49 349.00
  L 190.72 349.00
  A 0.52 0.52 0.0 0 1 190.20 348.48
  L 190.23 341.54
  A 0.52 0.52 0.0 0 1 190.75 341.02
  L 221.48 341.02
  A 0.52 0.52 0.0 0 1 222.00 341.54
  L 222.01 348.48
  A 0.52 0.52 0.0 0 1 221.49 349.00
  Z"
/>
<path fill="#3ac7d7" d="
  M 248.59 366.53
  L 244.49 366.53
  A 0.41 0.41 0.0 0 1 244.08 366.19
  L 243.92 365.17
  A 0.41 0.41 0.0 0 1 244.31 364.69
  L 255.67 364.46
  A 0.41 0.41 0.0 0 1 256.08 364.86
  L 256.10 366.23
  A 0.41 0.41 0.0 0 1 255.68 366.64
  L 251.43 366.56
  A 0.41 0.41 0.0 0 0 251.01 366.97
  L 251.11 378.62
  A 0.41 0.41 0.0 0 1 250.69 379.04
  L 249.28 379.03
  A 0.41 0.41 0.0 0 1 248.87 378.62
  L 249.00 366.94
  A 0.41 0.41 0.0 0 0 248.59 366.53
  Z"
/>
</svg>
